<svg width="64" height="64" viewBox="0 0 64 64" fill="none" xmlns="http://www.w3.org/2000/svg">
<path d="M6.68922 62.6867C11.8732 62.6867 14.5372 60.4547 14.5372 55.9187V7.60667C14.5372 3.07067 11.8732 0.838674 6.68922 0.838674H0.0652215V62.6867H6.68922ZM8.84922 55.6307C8.84922 57.2147 8.20122 58.0787 6.83322 58.0787H5.60922V5.08668H6.83322C8.20122 5.08668 8.84922 5.87867 8.84922 7.53467V55.6307ZM24.0193 62.6867V56.7827H18.9793V62.6867H24.0193ZM34.2264 62.6867V0.838674H28.6824V62.6867H34.2264ZM43.988 62.6867V56.7827H38.948V62.6867H43.988ZM57.7232 56.5667C57.7232 58.0787 57.1472 58.8707 55.9952 58.8707C54.9872 58.8707 54.2672 58.0787 54.2672 56.5667V39.9347H48.5792V56.3507C48.5792 61.1027 51.0272 63.5507 55.7792 63.5507C60.8192 63.5507 63.3392 61.1027 63.3392 56.3507V0.838674H57.7232V30.0707C57.7232 31.5107 56.9312 32.2307 55.7792 32.2307C54.9872 32.2307 54.2672 31.5107 54.2672 30.0707V0.838674H48.5792V31.9427C48.5792 34.8947 50.7392 37.2707 53.7632 37.2707C55.1312 37.2707 56.6432 36.6947 57.7232 35.5427V56.5667Z" fill="#262525"/>
</svg>
