<svg width="40" height="40" viewBox="0 0 40 40" fill="none" xmlns="http://www.w3.org/2000/svg">
<g id="SWM icons / broken / cart-4">
<path id="shape" d="M25.1751 31.5737C25.1751 33.3643 26.6267 34.8159 28.4173 34.8159C30.2079 34.8159 31.6595 33.3643 31.6595 31.5737C31.6595 29.7831 30.2079 28.3315 28.4173 28.3315H12.8017C11.9949 28.3315 11.311 27.7383 11.1969 26.9397M30.0384 23.4682H10.701L8.15351 5.63611H4.10075M15.4485 8.87831H34.9017L31.6595 18.6049M18.6907 31.5737C18.6907 33.3643 17.2391 34.8159 15.4485 34.8159C13.6578 34.8159 12.2063 33.3643 12.2063 31.5737C12.2063 29.7831 13.6578 28.3315 15.4485 28.3315C17.2391 28.3315 18.6907 29.7831 18.6907 31.5737Z" stroke="#262525" stroke-width="2.36013" stroke-linecap="round" stroke-linejoin="round"/>
</g>
</svg>
